_________________________  Visit us at _________________________
  
http://p2pdl.com  ____________________________  http://p2pdl.com


Dracula 2012 BRRip 720p x264 AAC - PRiSTiNE

Genre: Horror | Romance | Thriller
Plot: The tale begins with Jonathan Harker, journeying 
by train and carriage from England to Count Dracula's crumbling, 
remote castle situated in the Carpathian Mountains on the border 
of Transylvania. The purpose of his mission is to catalogue the 
big library of Dracula. At first enticed by Dracula's gracious 
manner, Harker soon discovers that he has become a prisoner 
in the castle.
Director: Dario Argento
Stars: Asia Argento, Rutger Hauer, Thomas Kretschmann
Rated: PG 13

Info: 
http://www.imdb.com/title/tt1852770/

General
Complete name                  : Dracula 2012 BRRip 720p x264 AAC - PRiSTiNE.mp4
Format                         : MPEG-4
Format profile                 : Base Media
File size                      : 616 MiB
Duration                       : 1h 50mn
Overall bit rate mode          : Variable
Overall bit rate               : 783 Kbps

Source                         : NoGrp (Thanks)

Video
ID                             : 1
Format                         : AVC
Format/Info                    : Advanced Video Codec
Format profile                 : High 10@L4.1
Format settings, CABAC         : Yes
Format settings, ReFrames      : 4 frames
Bit rate                       : 701 Kbps
Width                          : 1 280 pixels
Height                         : 544 pixels
Display aspect ratio           : 2.35:1
Frame rate mode                : Constant
Frame rate                     : 23.976 fps
Bit depth                      : 10 bits
Scan type                      : Progressive
Bits/(Pixel*Frame)             : 0.042
Stream size                    : 550 MiB (89%)

Audio
Format                         : AAC
Format/Info                    : Advanced Audio Codec
Bit rate mode                  : Variable
Bit rate                       : 79.8 Kbps
Channel(s)                     : 2 channels
Channel positions              : Front: L R
Sampling rate                  : 48.0 KHz / 24.0 KHz
Stream size                    : 62.8 MiB (10%)
Language                       : English

Subtitle                       : No

Screens: 
http://imgr.us/images/036lh7w0v3d0hxlhuw88.jpg 
http://imgr.us/images/uei8fehienoddqh3m98s.jpg 
http://imgr.us/images/se0jpzrlr7it0ceo8ocj.jpg 
http://imgr.us/images/olkz1vgatyynygdk25im.jpg

----------------------------------------------------------------------------------------------------
Encoded using revolutionary 10bit encoding, which enables us to provide you more crispier 
and sharper images at small sizes, just make sure you follow our instructions without a fault.
Recommend to you to use latest version of VLC player. Install K-Lite Codec Pack or shark007 codecs
in case of any kind of problem in playback (For non-VLC Media Player users). Alternatively, install
Core AVC codecs, the fastest decoder that there is coupled with Community Center Codec Pack and play
on Windows Media Player Classic. Check sample to be sure.
Enjoy!

Encoder Notes: Encoder Notes: Looking For Early Access To Anything You Can Provide DVDScr, R5, DVDR, BluRay, Direct
Audio, Music Releases and Seedboxes. We require dedicated servers, so as to do more and fast releases of movies.
If You Got anything to offer contact us at "prg@hush.com".